# xmcd
#
# Track frame offsets: 
#        150
#        22239
#        41227
#        61242
#        83082
#        111655
#        156979
#        188965
#        258900
#        316023
#
# Disc length: 4784 seconds
#
# Revision: 0
# Processed by: cddbd v1.5.2PL0 Copyright (c) Steve Scherf et al.
# Submitted via: ExactAudioCopy v1.0b1
#
DISCID=8912ae0a
DTITLE=Sergio Fiorentino - The Contemplative Liszt,CD5
DYEAR=2012
DGENRE=Classical
TTITLE0=Liebestraum No.3 in A flat major
TTITLE1=Paganini Study No.3:La Campanella
TTITLE2=Etude d execution transcendante No.6 "Vision"
TTITLE3=Hungarian Rhapsody No.15 "Rakoczy March"
TTITLE4=Hungarian Rhapsody No.8
TTITLE5=Hungarian Rhapsody No.12
TTITLE6=Ballade No.1 in D flat major
TTITLE7=Ballade No.2 in B minor
TTITLE8=Funerailles
TTITLE9=Mephisto Waltz No.1
EXTD=
EXTT0=
EXTT1=
EXTT2=
EXTT3=
EXTT4=
EXTT5=
EXTT6=
EXTT7=
EXTT8=
EXTT9=
PLAYORDER=
